<svg id="svg" version="1.1" xmlns="http://www.w3.org/2000/svg" xmlns:xlink="http://www.w3.org/1999/xlink" width="400" height="400" viewBox="0, 0, 400,400"><g id="svgg"><path id="path0" d="M0.000 127.734 L 0.000 255.469 7.422 255.469 L 14.844 255.469 14.844 250.000 L 14.844 244.531 22.656 244.531 L 30.469 244.531 30.469 236.719 L 30.469 228.906 41.405 228.906 L 52.342 228.906 52.440 160.449 L 52.539 91.992 58.594 91.925 C 61.924 91.888,65.308 91.844,66.113 91.827 L 67.578 91.797 67.578 83.984 L 67.578 76.172 74.805 76.172 L 82.031 76.172 82.031 68.359 L 82.031 60.547 89.063 60.547 L 96.094 60.547 96.094 53.320 L 96.094 46.094 102.539 46.094 L 108.984 46.094 108.984 39.063 L 108.984 32.031 126.855 31.989 C 136.685 31.965,181.992 31.969,227.539 31.998 C 273.086 32.026,310.659 32.045,311.035 32.040 C 311.661 32.032,311.719 32.623,311.719 39.063 L 311.719 46.094 318.555 46.094 L 325.391 46.094 325.391 53.320 L 325.391 60.547 333.008 60.547 L 340.625 60.547 340.625 68.359 L 340.625 76.172 347.904 76.172 L 355.182 76.172 355.033 84.082 L 354.883 91.992 363.050 92.098 L 371.218 92.204 371.058 160.642 L 370.898 229.081 381.415 229.091 L 391.932 229.102 391.838 236.816 L 391.743 244.531 395.871 244.531 L 400.000 244.531 400.000 122.266 L 400.000 0.000 200.000 0.000 L 0.000 0.000 0.000 127.734 M109.375 179.688 L 109.375 186.719 102.930 186.719 L 96.484 186.719 96.484 200.967 L 96.484 215.215 103.027 215.323 L 109.570 215.430 109.466 221.973 L 109.363 228.516 123.529 228.555 C 131.320 228.577,140.334 228.639,143.559 228.693 C 146.784 228.747,150.427 228.707,151.655 228.606 L 153.888 228.420 153.995 221.925 L 154.102 215.430 161.759 215.324 L 169.416 215.218 169.627 212.004 C 169.743 210.236,169.864 203.823,169.896 197.754 L 169.955 186.719 161.931 186.719 L 153.906 186.719 153.906 179.688 L 153.906 172.656 131.641 172.656 L 109.375 172.656 109.375 179.688 M287.207 172.953 L 269.531 173.055 269.531 179.887 L 269.531 186.719 261.696 186.719 L 253.861 186.719 253.982 200.975 L 254.102 215.231 261.816 215.233 L 269.531 215.234 269.531 222.070 L 269.531 228.906 290.625 228.906 L 311.719 228.906 311.719 222.070 L 311.719 215.234 318.555 215.234 L 325.391 215.234 325.391 200.977 L 325.391 186.719 318.555 186.719 L 311.719 186.719 311.719 179.883 L 311.719 173.047 310.254 172.980 C 307.498 172.855,304.863 172.852,287.207 172.953 M125.694 193.134 C 125.762 196.751,125.651 199.115,125.401 199.364 C 125.181 199.585,125.000 200.082,125.000 200.469 C 125.000 201.123,124.443 201.172,116.992 201.172 L 108.984 201.172 108.984 194.401 C 108.984 190.677,109.105 187.510,109.252 187.362 C 109.400 187.215,113.135 187.141,117.553 187.199 L 125.586 187.305 125.694 193.134 M284.287 194.043 L 284.393 200.781 276.767 200.781 L 269.141 200.781 269.141 193.937 L 269.141 187.093 276.660 187.199 L 284.180 187.305 284.287 194.043 M202.344 236.328 L 202.344 243.750 194.541 243.750 L 186.739 243.750 186.631 249.849 L 186.523 255.949 178.223 255.884 L 169.922 255.819 169.922 262.870 L 169.922 269.922 185.742 269.922 L 201.563 269.922 201.563 262.695 L 201.563 255.469 211.914 255.469 L 222.266 255.469 222.266 262.695 L 222.266 269.922 237.695 269.922 L 253.125 269.922 253.125 262.847 L 253.125 255.773 244.727 256.059 L 236.328 256.345 236.328 250.243 L 236.328 244.141 234.082 244.125 C 232.847 244.116,229.551 244.072,226.758 244.027 L 221.680 243.945 221.616 238.086 C 221.581 234.863,221.537 231.479,221.518 230.566 L 221.484 228.906 211.914 228.906 L 202.344 228.906 202.344 236.328 M48.730 285.840 L 30.078 285.945 30.078 303.715 L 30.078 321.484 15.039 321.484 L 0.000 321.484 0.000 360.742 L 0.000 400.000 184.375 400.000 L 368.750 400.000 368.750 396.875 L 368.750 393.750 384.375 393.750 L 400.000 393.750 400.000 357.617 L 400.000 321.484 396.094 321.484 L 392.188 321.484 392.188 303.711 L 392.188 285.938 373.859 285.938 L 355.531 285.938 355.283 288.379 C 355.146 289.722,355.088 294.248,355.154 298.438 L 355.273 306.055 358.984 306.138 C 361.025 306.184,364.586 306.228,366.897 306.236 L 371.099 306.250 370.999 335.645 L 370.898 365.039 362.988 364.920 L 355.078 364.801 355.078 371.790 L 355.078 378.779 339.551 379.038 C 331.011 379.180,318.440 379.296,311.617 379.296 L 299.210 379.297 299.312 364.171 L 299.414 349.044 308.398 348.970 C 313.340 348.929,319.185 348.880,321.387 348.862 L 325.391 348.828 325.391 341.992 L 325.391 335.156 318.538 335.156 L 311.686 335.156 311.720 328.809 C 311.738 325.317,311.746 322.149,311.736 321.768 C 311.720 321.129,311.227 321.083,305.418 321.182 L 299.118 321.289 299.004 327.734 C 298.942 331.279,298.877 337.574,298.859 341.722 L 298.828 349.263 296.387 349.179 C 295.044 349.133,291.796 349.123,289.168 349.157 L 284.391 349.219 284.285 357.129 L 284.180 365.039 279.688 365.101 C 277.217 365.135,266.380 365.063,255.607 364.941 L 236.018 364.720 235.995 349.938 L 235.973 335.156 240.936 335.102 C 243.665 335.073,246.426 335.013,247.070 334.970 C 247.715 334.927,249.429 334.864,250.879 334.829 L 253.516 334.766 253.516 327.930 L 253.516 321.094 211.523 321.094 L 169.531 321.094 169.531 328.125 L 169.531 335.156 177.884 335.156 C 185.524 335.156,186.249 335.215,186.381 335.840 C 186.460 336.216,186.467 342.983,186.397 350.879 L 186.268 365.234 163.056 365.234 L 139.844 365.234 139.844 357.235 L 139.844 349.236 132.324 349.130 L 124.805 349.023 124.702 335.254 L 124.599 321.484 116.987 321.484 L 109.375 321.484 109.375 328.311 L 109.375 335.137 102.832 335.244 L 96.289 335.352 96.182 342.085 L 96.075 348.818 110.245 348.921 L 124.414 349.023 124.516 364.180 L 124.619 379.336 104.594 379.140 C 93.581 379.032,80.747 378.936,76.074 378.925 L 67.578 378.906 67.578 372.266 L 67.578 365.625 61.035 365.553 C 57.437 365.513,54.053 365.463,53.516 365.441 L 52.539 365.401 52.439 335.826 L 52.339 306.250 59.958 306.250 L 67.578 306.250 67.578 295.898 C 67.578 290.205,67.534 285.589,67.480 285.641 C 67.427 285.692,58.989 285.782,48.730 285.840 " stroke="none" fill="#052d32" fill-rule="evenodd"></path><path id="path1" d="M110.849 32.290 L 109.393 32.468 109.286 39.379 L 109.180 46.289 102.832 46.289 L 96.484 46.289 96.484 52.393 C 96.484 55.750,96.375 59.045,96.240 59.717 L 95.996 60.937 89.264 60.938 L 82.532 60.938 82.251 74.707 C 82.096 82.280,82.000 91.992,82.036 96.289 C 82.072 100.586,82.085 104.321,82.066 104.590 C 82.040 104.961,80.351 105.078,75.023 105.078 C 70.736 105.078,67.920 105.231,67.772 105.472 C 67.638 105.688,67.475 137.109,67.411 175.296 L 67.294 244.727 49.174 244.789 C 39.208 244.823,27.500 244.867,23.156 244.886 L 15.256 244.922 15.148 250.293 L 15.039 255.664 7.520 255.770 L 0.000 255.876 0.000 280.477 L 0.000 305.078 1.386 305.078 L 2.772 305.078 2.711 299.707 L 2.649 294.336 8.942 294.229 L 15.234 294.121 15.234 282.217 L 15.234 270.313 41.364 270.313 L 67.493 270.313 67.779 263.081 L 68.064 255.850 82.177 255.952 L 96.289 256.055 96.396 263.184 C 96.454 267.104,96.366 270.330,96.200 270.352 C 95.947 270.385,84.018 270.688,82.520 270.699 C 82.146 270.702,82.031 272.450,82.031 278.125 L 82.031 285.547 79.199 285.570 C 77.642 285.582,74.478 285.573,72.168 285.549 L 67.969 285.505 67.929 295.975 C 67.907 301.734,67.863 316.065,67.831 327.823 L 67.773 349.201 74.805 349.308 L 81.836 349.414 81.836 357.227 L 81.836 365.039 103.027 365.140 L 124.219 365.241 124.219 357.230 L 124.219 349.219 103.120 349.219 L 82.021 349.219 82.124 335.254 L 82.227 321.289 89.258 321.218 L 96.289 321.146 96.395 313.698 L 96.501 306.250 102.938 306.250 L 109.375 306.250 109.375 300.586 L 109.375 294.922 116.992 294.922 L 124.609 294.922 124.609 289.063 L 124.609 283.203 131.772 283.203 L 138.936 283.203 139.178 315.830 C 139.311 333.776,139.525 348.629,139.655 348.838 C 139.803 349.078,148.465 349.219,163.109 349.219 L 186.328 349.219 186.328 342.134 L 186.328 335.050 178.027 335.176 C 173.462 335.246,166.253 335.270,162.007 335.229 L 154.287 335.156 154.390 320.605 L 154.492 306.055 162.207 305.949 L 169.922 305.843 169.922 300.187 L 169.922 294.531 185.732 294.531 L 201.542 294.531 201.650 300.293 L 201.758 306.055 211.719 306.055 L 221.680 306.055 221.788 300.289 L 221.896 294.522 237.608 294.624 L 253.320 294.727 253.393 299.805 C 253.433 302.598,253.477 305.099,253.490 305.363 C 253.509 305.722,255.464 305.870,261.230 305.949 L 268.945 306.055 269.048 320.605 L 269.150 335.156 252.730 335.156 L 236.311 335.156 236.417 342.285 L 236.523 349.414 252.832 349.515 L 269.141 349.616 269.141 342.777 L 269.141 335.938 272.754 335.869 C 275.951 335.808,280.490 335.689,283.700 335.583 L 284.783 335.547 284.765 321.191 C 284.756 313.296,284.752 301.605,284.757 295.212 L 284.766 283.588 291.895 283.743 C 295.815 283.828,299.067 283.917,299.121 283.941 C 299.175 283.965,299.219 286.445,299.219 289.453 L 299.219 294.922 305.664 294.922 L 312.109 294.922 312.109 300.586 L 312.109 306.250 318.961 306.250 L 325.813 306.250 325.781 312.988 C 325.763 316.694,325.756 320.034,325.765 320.410 C 325.780 321.035,326.383 321.094,332.813 321.094 C 339.834 321.094,339.844 321.095,339.876 321.973 C 339.908 322.832,339.895 344.270,339.861 347.559 L 339.844 349.219 319.727 349.219 L 299.609 349.219 299.609 357.031 L 299.609 364.844 308.496 364.862 C 313.384 364.872,322.568 364.916,328.906 364.960 L 340.430 365.039 340.278 357.324 L 340.126 349.609 341.255 349.567 C 341.875 349.544,345.239 349.557,348.731 349.597 L 355.079 349.669 355.073 317.608 L 355.068 285.547 347.847 285.547 L 340.625 285.547 340.625 277.930 L 340.625 270.313 333.203 270.313 L 325.781 270.313 325.781 263.081 L 325.781 255.850 340.137 255.952 L 354.492 256.055 354.521 258.203 C 354.536 259.385,354.580 262.593,354.618 265.332 L 354.688 270.313 372.559 270.318 C 382.388 270.321,390.825 270.429,391.309 270.559 C 392.173 270.790,392.188 270.895,392.188 276.999 L 392.188 283.203 396.094 283.203 L 400.000 283.203 400.000 264.063 L 400.000 244.922 377.422 244.922 L 354.844 244.922 355.004 175.181 C 355.093 136.421,355.014 105.467,354.828 105.501 C 354.643 105.534,351.265 105.540,347.321 105.515 L 340.149 105.469 340.289 90.918 L 340.430 76.367 332.910 76.261 L 325.391 76.155 325.391 68.360 L 325.391 60.565 318.457 60.458 L 311.523 60.352 311.523 53.320 C 311.523 49.453,311.479 43.125,311.426 39.258 L 311.328 32.227 211.816 32.169 C 157.085 32.138,111.650 32.192,110.849 32.290 M284.464 53.419 L 284.570 61.125 289.844 61.169 C 292.744 61.193,295.952 61.239,296.973 61.271 L 298.828 61.328 298.828 68.750 L 298.828 76.172 291.602 76.172 C 284.994 76.172,284.372 76.230,284.337 76.855 C 284.315 77.231,284.306 80.659,284.315 84.473 L 284.332 91.406 276.736 91.406 L 269.141 91.406 269.100 93.652 C 269.077 94.888,269.088 98.052,269.125 100.684 L 269.190 105.469 256.177 105.481 C 249.020 105.487,238.462 105.482,232.715 105.469 L 222.266 105.446 222.236 108.875 C 222.220 110.761,222.217 113.755,222.229 115.527 L 222.251 118.750 220.403 118.784 C 219.386 118.802,215.215 118.896,211.133 118.993 C 200.883 119.236,201.953 120.035,201.953 112.134 L 201.953 105.533 178.223 105.593 L 154.492 105.653 154.386 98.725 L 154.279 91.797 152.628 91.764 C 151.010 91.731,140.323 91.446,139.746 91.420 C 139.585 91.412,139.453 88.066,139.453 83.984 C 139.453 79.902,139.321 76.560,139.160 76.557 C 138.999 76.555,135.791 76.511,132.031 76.460 L 125.195 76.367 125.121 68.652 L 125.046 60.938 132.241 60.938 L 139.436 60.938 139.542 53.613 L 139.648 46.289 205.664 46.193 C 241.973 46.140,272.471 46.052,273.438 45.998 C 274.404 45.943,277.257 45.857,279.777 45.805 L 284.359 45.713 284.464 53.419 M153.995 150.734 L 154.102 158.008 162.207 158.113 L 170.313 158.219 170.313 165.438 L 170.313 172.656 177.930 172.656 C 184.909 172.656,185.550 172.713,185.586 173.340 C 185.671 174.837,185.674 176.835,185.612 188.574 L 185.547 200.781 177.724 200.781 L 169.901 200.781 169.953 205.371 C 169.981 207.896,169.986 211.235,169.963 212.793 L 169.922 215.625 162.109 215.625 L 154.297 215.625 154.297 222.269 L 154.297 228.913 131.782 228.812 L 109.268 228.711 109.345 222.178 L 109.422 215.644 102.856 215.537 L 96.289 215.430 96.183 208.095 L 96.076 200.760 89.054 200.894 L 82.031 201.028 82.031 186.842 L 82.031 172.656 89.063 172.656 L 96.094 172.656 96.094 165.430 L 96.094 158.203 102.734 158.203 L 109.375 158.203 109.375 150.777 L 109.375 143.351 131.632 143.406 L 153.889 143.461 153.995 150.734 M311.827 150.870 L 311.741 158.185 318.663 158.292 L 325.586 158.398 325.692 165.723 L 325.798 173.047 332.919 173.047 L 340.039 173.047 339.996 183.887 C 339.973 189.849,339.929 196.148,339.899 197.886 L 339.844 201.045 332.813 200.978 L 325.781 200.911 325.781 208.268 L 325.781 215.625 318.945 215.625 L 312.109 215.625 312.109 222.461 L 312.109 229.297 290.625 229.297 L 269.141 229.297 269.141 222.469 L 269.141 215.642 261.459 215.536 L 253.777 215.430 253.870 208.105 L 253.963 200.781 245.341 200.781 L 236.719 200.781 236.719 186.914 L 236.719 173.047 237.988 173.010 C 238.687 172.989,241.807 172.932,244.922 172.883 C 248.037 172.833,251.341 172.762,252.264 172.725 L 253.942 172.656 253.905 167.090 C 253.885 164.028,253.877 160.780,253.887 159.872 L 253.906 158.220 261.621 158.114 L 269.336 158.008 269.442 150.653 L 269.549 143.298 290.731 143.426 L 311.914 143.555 311.827 150.870 M222.177 221.973 L 222.285 228.516 219.052 228.593 L 215.820 228.671 218.739 228.807 C 220.444 228.887,221.781 229.139,221.955 229.413 C 222.187 229.777,222.255 229.776,222.260 229.408 C 222.264 229.054,224.053 228.932,229.312 228.926 L 236.358 228.918 236.311 236.356 L 236.264 243.794 244.792 243.870 L 253.320 243.945 253.429 249.579 C 253.511 253.825,253.415 255.292,253.038 255.530 C 252.648 255.778,252.646 255.849,253.027 255.853 C 253.400 255.858,253.516 257.568,253.516 263.086 L 253.516 270.313 237.695 270.313 L 221.875 270.313 221.875 263.086 L 221.875 255.859 211.923 255.859 L 201.971 255.859 201.864 262.988 L 201.758 270.117 185.588 270.219 L 169.418 270.321 169.704 257.329 C 169.862 250.183,170.077 244.248,170.184 244.141 C 170.290 244.033,173.914 243.918,178.237 243.885 L 186.096 243.824 186.170 236.463 C 186.211 232.414,186.263 228.963,186.286 228.793 C 186.309 228.624,189.888 228.536,194.238 228.598 L 202.148 228.711 202.032 222.300 C 201.942 217.367,202.032 215.817,202.423 215.573 C 202.702 215.399,207.236 215.296,212.500 215.343 L 222.070 215.430 222.177 221.973 M221.992 232.031 C 221.992 233.213,222.065 233.696,222.155 233.105 C 222.244 232.515,222.244 231.548,222.155 230.957 C 222.065 230.366,221.992 230.850,221.992 232.031 M221.966 235.938 C 221.966 236.689,222.046 236.997,222.144 236.621 C 222.243 236.245,222.243 235.630,222.144 235.254 C 222.046 234.878,221.966 235.186,221.966 235.938 M231.738 243.629 C 232.114 243.727,232.729 243.727,233.105 243.629 C 233.481 243.530,233.174 243.450,232.422 243.450 C 231.670 243.450,231.362 243.530,231.738 243.629 M175.684 255.760 C 177.671 255.831,180.923 255.831,182.910 255.760 C 184.897 255.689,183.271 255.631,179.297 255.631 C 175.322 255.631,173.696 255.689,175.684 255.760 M245.410 255.749 C 246.001 255.838,246.968 255.838,247.559 255.749 C 248.149 255.659,247.666 255.586,246.484 255.586 C 245.303 255.586,244.819 255.659,245.410 255.749 M381.250 396.875 L 381.250 400.000 384.375 400.000 L 387.500 400.000 387.500 396.875 L 387.500 393.750 384.375 393.750 L 381.250 393.750 381.250 396.875 " stroke="none" fill="#19d75e" fill-rule="evenodd"></path><path id="path2" d="M152.051 31.928 C 153.071 32.008,154.741 32.008,155.762 31.928 C 156.782 31.847,155.947 31.781,153.906 31.781 C 151.865 31.781,151.030 31.847,152.051 31.928 M191.895 31.920 C 192.485 32.010,193.452 32.010,194.043 31.920 C 194.634 31.831,194.150 31.758,192.969 31.758 C 191.787 31.758,191.304 31.831,191.895 31.920 M108.984 39.037 L 108.984 46.042 107.910 46.222 C 106.889 46.393,106.894 46.399,108.008 46.346 L 109.180 46.289 109.286 39.379 L 109.393 32.468 110.849 32.315 L 112.305 32.163 110.645 32.097 L 108.984 32.031 108.984 39.037 M249.512 32.324 C 259.878 32.382,276.841 32.382,287.207 32.324 C 297.573 32.266,289.092 32.219,268.359 32.219 C 247.627 32.219,239.146 32.266,249.512 32.324 M311.525 46.289 L 311.535 60.352 318.463 60.458 L 325.391 60.565 325.391 68.360 L 325.391 76.155 332.910 76.261 L 340.430 76.367 340.289 90.918 L 340.149 105.469 347.321 105.515 C 351.265 105.540,354.643 105.534,354.828 105.501 C 355.014 105.467,355.093 136.421,355.004 175.181 L 354.844 244.922 377.520 244.839 C 389.991 244.793,398.294 244.699,395.969 244.630 L 391.743 244.504 391.838 236.803 L 391.932 229.102 381.415 229.091 L 370.898 229.081 371.058 160.642 L 371.218 92.204 363.050 92.098 L 354.883 91.992 355.033 84.082 L 355.182 76.172 347.904 76.172 L 340.625 76.172 340.625 68.359 L 340.625 60.547 333.008 60.547 L 325.391 60.547 325.391 53.320 L 325.391 46.094 318.563 46.094 L 311.736 46.094 311.625 39.160 C 311.564 35.347,311.519 38.555,311.525 46.289 M96.254 52.734 C 96.254 56.494,96.313 58.032,96.385 56.152 C 96.456 54.272,96.456 51.196,96.385 49.316 C 96.313 47.437,96.254 48.975,96.254 52.734 M99.707 46.381 C 100.728 46.461,102.397 46.461,103.418 46.381 C 104.438 46.300,103.604 46.235,101.563 46.235 C 99.521 46.235,98.687 46.300,99.707 46.381 M82.031 68.359 L 82.031 76.172 74.805 76.172 L 67.578 76.172 67.578 83.984 L 67.578 91.797 66.113 91.827 C 65.308 91.844,61.924 91.888,58.594 91.925 L 52.539 91.992 52.440 160.449 L 52.342 228.906 41.405 228.906 L 30.469 228.906 30.469 236.719 L 30.469 244.531 22.656 244.531 L 14.844 244.531 14.844 249.992 L 14.844 255.452 7.324 255.571 L -0.195 255.691 7.422 255.677 L 15.039 255.664 15.148 250.293 L 15.256 244.922 23.156 244.886 C 27.500 244.867,39.208 244.823,49.174 244.789 L 67.294 244.727 67.411 175.296 C 67.475 137.109,67.638 105.688,67.772 105.472 C 67.920 105.231,70.736 105.078,75.023 105.078 C 80.351 105.078,82.040 104.961,82.066 104.590 C 82.085 104.321,82.072 100.586,82.036 96.289 C 82.000 91.992,82.096 82.284,82.251 74.716 L 82.531 60.955 89.410 60.839 L 96.289 60.723 89.160 60.635 L 82.031 60.547 82.031 68.359 M109.375 150.777 L 109.375 158.203 102.734 158.203 L 96.094 158.203 96.094 165.430 L 96.094 172.656 89.063 172.656 L 82.031 172.656 82.031 186.842 L 82.031 201.028 89.054 200.894 L 96.076 200.760 96.183 208.095 L 96.289 215.430 102.808 215.537 L 109.327 215.644 109.485 216.709 C 109.632 217.696,109.640 217.688,109.607 216.602 L 109.570 215.430 103.027 215.323 L 96.484 215.215 96.484 200.967 L 96.484 186.719 102.930 186.719 L 109.375 186.719 109.375 179.688 L 109.375 172.656 131.641 172.656 L 153.906 172.656 153.906 179.688 L 153.906 186.719 161.914 186.719 L 169.922 186.719 169.922 193.750 L 169.922 200.781 177.734 200.781 L 185.547 200.781 185.612 188.574 C 185.674 176.835,185.671 174.837,185.586 173.340 C 185.550 172.713,184.909 172.656,177.930 172.656 L 170.313 172.656 170.313 165.438 L 170.313 158.219 162.207 158.113 L 154.102 158.008 153.995 150.734 L 153.889 143.461 131.632 143.406 L 109.375 143.351 109.375 150.777 M269.442 150.653 L 269.336 158.008 261.621 158.114 L 253.906 158.220 253.887 159.872 C 253.877 160.780,253.885 164.028,253.905 167.090 L 253.942 172.656 252.264 172.725 C 251.341 172.762,248.037 172.833,244.922 172.883 C 241.807 172.932,238.687 172.989,237.988 173.010 L 236.719 173.047 236.719 186.914 L 236.719 200.781 245.303 200.781 L 253.887 200.781 254.024 207.129 C 254.099 210.620,254.081 207.456,253.983 200.098 L 253.805 186.719 261.668 186.719 L 269.531 186.719 269.531 179.883 L 269.531 173.047 287.012 173.010 C 296.626 172.990,305.459 172.959,306.641 172.941 C 307.822 172.923,309.448 172.939,310.254 172.977 L 311.719 173.047 311.719 179.883 L 311.719 186.719 318.555 186.719 L 325.391 186.719 325.391 200.977 L 325.391 215.234 318.555 215.234 L 311.719 215.234 311.719 222.070 L 311.719 228.906 290.625 228.906 L 269.531 228.906 269.531 222.070 L 269.531 215.234 261.747 215.234 C 255.125 215.234,253.936 215.146,253.779 214.641 C 253.650 214.225,253.614 214.255,253.658 214.738 C 253.716 215.370,254.384 215.439,261.431 215.536 L 269.141 215.642 269.141 222.469 L 269.141 229.297 290.625 229.297 L 312.109 229.297 312.109 222.461 L 312.109 215.625 318.945 215.625 L 325.781 215.625 325.781 208.268 L 325.781 200.911 332.813 200.978 L 339.844 201.045 339.899 197.886 C 339.929 196.148,339.973 189.849,339.996 183.887 L 340.039 173.047 332.919 173.047 L 325.798 173.047 325.692 165.723 L 325.586 158.398 318.663 158.292 L 311.741 158.185 311.827 150.870 L 311.914 143.555 290.731 143.426 L 269.549 143.298 269.442 150.653 M109.161 187.604 C 109.053 187.885,109.018 191.096,109.082 194.741 L 109.200 201.367 109.287 194.434 L 109.375 187.500 117.383 187.500 L 125.391 187.500 125.391 193.336 C 125.391 196.806,125.232 199.271,125.000 199.414 C 124.785 199.547,124.623 200.041,124.640 200.511 C 124.660 201.052,124.742 201.151,124.864 200.781 C 124.970 200.459,125.226 199.844,125.432 199.414 C 125.638 198.984,125.756 196.084,125.696 192.969 L 125.586 187.305 117.471 187.199 C 111.075 187.116,109.315 187.202,109.161 187.604 M269.214 189.542 L 269.288 191.992 269.429 189.746 L 269.570 187.500 276.768 187.500 L 283.966 187.500 284.087 194.141 L 284.208 200.782 284.194 194.043 L 284.180 187.305 276.660 187.199 L 269.141 187.093 269.214 189.542 M169.531 212.882 L 169.531 215.218 161.816 215.324 L 154.102 215.430 153.995 221.952 L 153.888 228.474 152.041 228.620 L 150.195 228.765 152.246 228.836 L 154.297 228.906 154.297 222.266 L 154.297 215.625 162.109 215.625 L 169.922 215.625 169.922 213.086 C 169.922 211.689,169.834 210.547,169.727 210.547 C 169.619 210.547,169.531 211.598,169.531 212.882 M109.492 220.313 C 109.492 221.494,109.565 221.978,109.655 221.387 C 109.744 220.796,109.744 219.829,109.655 219.238 C 109.565 218.647,109.492 219.131,109.492 220.313 M109.085 228.125 C 109.223 228.632,111.183 228.712,123.665 228.718 L 138.086 228.726 123.848 228.616 C 113.085 228.533,109.527 228.388,109.268 228.022 C 109.017 227.669,108.968 227.696,109.085 228.125 M139.551 228.785 C 139.927 228.883,140.542 228.883,140.918 228.785 C 141.294 228.687,140.986 228.606,140.234 228.606 C 139.482 228.606,139.175 228.687,139.551 228.785 M202.214 228.776 C 202.070 228.919,201.953 232.259,201.953 236.198 L 201.953 243.359 194.141 243.359 L 186.328 243.359 186.328 249.577 C 186.328 253.433,186.176 255.870,185.928 255.993 C 185.708 256.102,185.751 256.146,186.025 256.091 C 186.398 256.016,186.551 254.448,186.631 249.870 L 186.739 243.750 194.541 243.750 L 202.344 243.750 202.344 236.342 L 202.344 228.935 206.152 228.807 L 209.961 228.679 206.217 228.597 C 204.159 228.552,202.357 228.633,202.214 228.776 M211.035 228.785 C 211.411 228.883,212.026 228.883,212.402 228.785 C 212.778 228.687,212.471 228.606,211.719 228.606 C 210.967 228.606,210.659 228.687,211.035 228.785 M221.591 230.469 C 221.591 231.436,221.667 231.831,221.760 231.348 C 221.853 230.864,221.853 230.073,221.760 229.590 C 221.667 229.106,221.591 229.502,221.591 230.469 M221.662 238.769 L 221.680 243.945 226.661 243.964 L 231.642 243.982 226.770 243.854 L 221.898 243.727 221.771 238.660 L 221.644 233.593 221.662 238.769 M234.160 244.030 L 236.293 244.179 236.435 246.601 L 236.577 249.023 236.550 246.484 L 236.523 243.945 234.275 243.913 L 232.027 243.881 234.160 244.030 M236.427 252.539 C 236.431 253.398,236.511 253.704,236.604 253.218 C 236.698 252.732,236.694 252.029,236.597 251.656 C 236.499 251.282,236.422 251.680,236.427 252.539 M169.792 255.729 C 169.648 255.872,169.531 259.214,169.531 263.155 L 169.531 270.321 185.645 270.219 L 201.758 270.117 201.864 262.988 L 201.971 255.859 211.923 255.859 L 221.875 255.859 221.875 263.086 L 221.875 270.313 237.695 270.313 L 253.516 270.313 253.427 262.988 L 253.339 255.664 253.223 262.793 L 253.107 269.922 237.687 269.922 L 222.266 269.922 222.266 262.695 L 222.266 255.469 211.914 255.469 L 201.563 255.469 201.563 262.695 L 201.563 269.922 185.726 269.922 L 169.889 269.922 170.003 262.695 C 170.066 258.720,170.103 255.468,170.085 255.468 C 170.067 255.469,169.935 255.586,169.792 255.729 M236.327 255.957 C 236.328 256.118,238.306 256.220,240.723 256.184 C 245.233 256.117,244.706 255.957,239.355 255.770 C 237.689 255.712,236.327 255.796,236.327 255.957 M249.519 255.752 C 250.221 255.839,251.275 255.837,251.862 255.748 C 252.449 255.659,251.875 255.588,250.586 255.590 C 249.297 255.592,248.817 255.665,249.519 255.752 M67.779 263.081 L 67.493 270.313 41.364 270.313 L 15.234 270.313 15.234 282.217 L 15.234 294.121 8.942 294.229 L 2.649 294.336 2.711 299.707 L 2.772 305.078 1.386 305.078 L 0.000 305.078 0.000 313.281 L 0.000 321.484 15.039 321.484 L 30.078 321.484 30.078 303.718 L 30.078 285.952 48.828 285.847 L 67.578 285.742 67.578 295.996 L 67.578 306.250 59.958 306.250 L 52.339 306.250 52.439 335.826 L 52.539 365.401 53.516 365.441 C 54.053 365.463,57.437 365.513,61.035 365.553 L 67.578 365.625 67.578 372.266 L 67.578 378.906 76.074 378.925 C 80.747 378.936,93.581 379.032,104.594 379.140 L 124.619 379.336 124.516 364.180 L 124.414 349.023 110.245 348.921 L 96.075 348.818 96.182 342.085 L 96.289 335.352 102.832 335.244 L 109.375 335.137 109.375 328.311 L 109.375 321.484 116.987 321.484 L 124.599 321.484 124.702 335.254 L 124.805 349.023 132.324 349.130 L 139.844 349.236 139.844 357.235 L 139.844 365.234 163.086 365.234 L 186.328 365.234 186.328 357.227 L 186.328 349.219 163.109 349.219 C 148.465 349.219,139.803 349.078,139.655 348.838 C 139.525 348.629,139.311 333.776,139.178 315.830 L 138.936 283.203 131.772 283.203 L 124.609 283.203 124.609 289.063 L 124.609 294.922 116.992 294.922 L 109.375 294.922 109.375 300.586 L 109.375 306.250 102.938 306.250 L 96.501 306.250 96.395 313.698 L 96.289 321.146 89.258 321.218 L 82.227 321.289 82.124 335.254 L 82.021 349.219 103.120 349.219 L 124.219 349.219 124.219 357.230 L 124.219 365.241 103.027 365.140 L 81.836 365.039 81.836 357.227 L 81.836 349.414 74.805 349.308 L 67.773 349.201 67.831 327.823 C 67.863 316.065,67.907 301.734,67.929 295.975 L 67.969 285.505 72.168 285.549 C 74.478 285.573,77.642 285.582,79.199 285.570 L 82.031 285.547 82.031 278.125 C 82.031 272.450,82.146 270.702,82.520 270.699 C 84.018 270.688,95.947 270.385,96.200 270.352 C 96.366 270.330,96.454 267.104,96.396 263.184 L 96.289 256.055 82.177 255.952 L 68.064 255.850 67.779 263.081 M325.781 263.081 L 325.781 270.313 333.203 270.313 L 340.625 270.313 340.625 277.930 L 340.625 285.547 347.852 285.547 L 355.078 285.547 355.141 287.012 C 355.202 288.454,355.206 288.457,355.361 287.207 L 355.518 285.938 373.853 285.938 L 392.188 285.938 392.188 303.711 L 392.188 321.484 396.094 321.484 L 400.000 321.484 400.000 302.344 L 400.000 283.203 396.094 283.203 L 392.188 283.203 392.188 276.999 C 392.188 270.895,392.173 270.790,391.309 270.559 C 390.825 270.429,382.388 270.321,372.559 270.318 L 354.688 270.313 354.618 265.332 C 354.580 262.593,354.536 259.385,354.521 258.203 L 354.492 256.055 340.137 255.952 L 325.781 255.850 325.781 263.081 M284.757 295.212 C 284.752 301.605,284.756 313.296,284.765 321.191 L 284.783 335.547 283.700 335.583 C 280.490 335.689,275.951 335.808,272.754 335.869 L 269.141 335.938 269.141 342.777 L 269.141 349.616 252.832 349.515 L 236.523 349.414 236.324 342.188 C 236.180 336.985,236.109 339.129,236.071 349.840 L 236.018 364.720 255.607 364.941 C 266.380 365.063,277.217 365.135,279.688 365.101 L 284.180 365.039 284.285 357.129 L 284.391 349.219 289.168 349.157 C 291.796 349.123,295.044 349.133,296.387 349.179 L 298.828 349.263 298.859 341.722 C 298.877 337.574,298.942 331.279,299.004 327.734 L 299.118 321.289 305.418 321.182 C 311.227 321.083,311.720 321.129,311.736 321.768 C 311.746 322.149,311.738 325.317,311.720 328.809 L 311.686 335.156 318.538 335.156 L 325.391 335.156 325.391 341.979 L 325.391 348.802 321.191 348.927 C 318.882 348.996,322.134 349.090,328.418 349.136 L 339.844 349.219 339.861 347.559 C 339.895 344.270,339.908 322.832,339.876 321.973 C 339.844 321.095,339.834 321.094,332.813 321.094 C 326.383 321.094,325.780 321.035,325.765 320.410 C 325.756 320.034,325.763 316.694,325.781 312.988 L 325.813 306.250 318.961 306.250 L 312.109 306.250 312.109 300.586 L 312.109 294.922 305.664 294.922 L 299.219 294.922 299.219 289.453 C 299.219 286.445,299.175 283.965,299.121 283.941 C 299.067 283.917,295.815 283.828,291.895 283.743 L 284.766 283.588 284.757 295.212 M169.922 300.187 L 169.922 305.843 162.207 305.949 L 154.492 306.055 154.390 320.605 L 154.287 335.156 160.835 335.159 C 164.436 335.160,168.789 335.224,170.508 335.302 C 172.227 335.380,172.710 335.370,171.582 335.280 L 169.531 335.117 169.531 328.106 L 169.531 321.094 211.523 321.094 L 253.516 321.094 253.516 327.912 L 253.516 334.730 250.879 334.867 C 249.429 334.942,252.946 335.038,258.696 335.080 L 269.150 335.156 269.048 320.605 L 268.945 306.055 261.230 305.949 C 255.464 305.870,253.509 305.722,253.490 305.363 C 253.477 305.099,253.433 302.598,253.393 299.805 L 253.320 294.727 237.608 294.624 L 221.896 294.522 221.788 300.289 L 221.680 306.055 211.719 306.055 L 201.758 306.055 201.650 300.293 L 201.542 294.531 185.732 294.531 L 169.922 294.531 169.922 300.187 M354.987 327.602 L 355.091 349.670 348.737 349.597 C 345.242 349.557,341.875 349.544,341.255 349.567 L 340.126 349.609 340.278 357.324 L 340.430 365.039 328.906 364.960 C 322.568 364.916,313.377 364.872,308.481 364.862 L 299.579 364.844 299.692 356.873 C 299.754 352.489,299.673 348.983,299.512 349.083 C 299.351 349.183,299.219 356.022,299.219 364.281 L 299.219 379.297 311.621 379.296 C 318.442 379.296,331.011 379.180,339.551 379.038 L 355.078 378.779 355.078 371.790 L 355.078 364.801 362.988 364.920 L 370.898 365.039 370.999 335.645 L 371.099 306.250 366.799 306.232 C 364.435 306.222,360.962 306.207,359.082 306.198 C 357.202 306.188,355.488 306.035,355.273 305.858 C 355.014 305.643,354.918 312.924,354.987 327.602 M186.427 337.695 C 186.431 338.555,186.511 338.860,186.604 338.374 C 186.698 337.888,186.694 337.185,186.597 336.812 C 186.499 336.438,186.422 336.836,186.427 337.695 M305.176 349.097 C 305.552 349.196,306.167 349.196,306.543 349.097 C 306.919 348.999,306.611 348.919,305.859 348.919 C 305.107 348.919,304.800 348.999,305.176 349.097 M387.500 396.875 L 387.500 400.000 393.750 400.000 L 400.000 400.000 400.000 396.875 L 400.000 393.750 393.750 393.750 L 387.500 393.750 387.500 396.875 " stroke="none" fill="#0c9c57" fill-rule="evenodd"></path><path id="path3" d="M109.463 194.238 L 109.570 200.977 117.090 201.088 C 124.356 201.195,124.609 201.173,124.609 200.427 C 124.609 200.003,124.785 199.547,125.000 199.414 C 125.232 199.271,125.391 196.806,125.391 193.336 L 125.391 187.500 117.374 187.500 L 109.357 187.500 109.463 194.238 M269.483 190.527 C 269.457 192.192,269.413 195.137,269.386 197.070 L 269.336 200.586 276.660 200.692 L 283.984 200.798 283.984 194.149 L 283.984 187.500 276.758 187.500 L 269.531 187.500 269.483 190.527 M375.000 396.875 L 375.000 400.000 378.125 400.000 L 381.250 400.000 381.250 396.875 L 381.250 393.750 378.125 393.750 L 375.000 393.750 375.000 396.875 " stroke="none" fill="#faefdf" fill-rule="evenodd"></path><path id="path4" d="M273.438 45.998 C 272.471 46.052,241.973 46.140,205.664 46.193 L 139.648 46.289 139.542 53.613 L 139.436 60.938 132.241 60.938 L 125.046 60.938 125.121 68.652 L 125.195 76.367 132.031 76.460 C 135.791 76.511,138.999 76.555,139.160 76.557 C 139.321 76.560,139.453 79.902,139.453 83.984 C 139.453 88.066,139.585 91.412,139.746 91.420 C 140.323 91.446,151.010 91.731,152.628 91.764 L 154.279 91.797 154.386 98.725 L 154.492 105.653 178.223 105.593 L 201.953 105.533 201.953 112.134 C 201.953 120.035,200.883 119.236,211.133 118.993 C 215.215 118.896,219.386 118.802,220.403 118.784 L 222.251 118.750 222.229 115.527 C 222.217 113.755,222.220 110.761,222.236 108.875 L 222.266 105.446 232.715 105.469 C 238.462 105.482,249.020 105.487,256.177 105.481 L 269.190 105.469 269.125 100.684 C 269.088 98.052,269.077 94.888,269.100 93.652 L 269.141 91.406 276.736 91.406 L 284.332 91.406 284.315 84.473 C 284.306 80.659,284.315 77.231,284.337 76.855 C 284.372 76.230,284.994 76.172,291.602 76.172 L 298.828 76.172 298.828 68.750 L 298.828 61.328 296.973 61.271 C 295.952 61.239,292.744 61.193,289.844 61.169 L 284.570 61.125 284.464 53.419 L 284.359 45.713 279.777 45.805 C 277.257 45.857,274.404 45.943,273.438 45.998 M202.441 215.498 C 202.078 215.641,201.953 217.336,201.953 222.103 L 201.953 228.516 194.182 228.516 C 188.306 228.516,186.375 228.635,186.262 229.004 C 186.179 229.272,186.117 232.568,186.122 236.328 L 186.133 243.164 194.043 243.270 L 201.953 243.376 201.953 235.946 L 201.953 228.516 212.119 228.516 L 222.285 228.516 222.177 221.973 L 222.070 215.430 212.500 215.368 C 207.236 215.334,202.710 215.392,202.441 215.498 M222.255 229.213 C 222.249 229.367,222.205 232.656,222.157 236.523 L 222.070 243.555 229.102 243.555 L 236.133 243.555 236.239 236.237 L 236.345 228.918 229.305 228.926 C 225.434 228.931,222.261 229.060,222.255 229.213 M170.605 244.046 C 169.993 244.182,169.922 244.785,169.922 249.833 L 169.922 255.469 178.125 255.469 L 186.328 255.469 186.328 249.655 L 186.328 243.841 178.809 243.867 C 174.673 243.882,170.981 243.962,170.605 244.046 M236.719 249.858 L 236.719 255.981 242.640 255.725 C 245.897 255.584,249.681 255.469,251.049 255.469 L 253.537 255.469 253.428 249.707 L 253.320 243.945 245.020 243.840 L 236.719 243.734 236.719 249.858 M368.750 396.875 L 368.750 400.000 371.875 400.000 L 375.000 400.000 375.000 396.875 L 375.000 393.750 371.875 393.750 L 368.750 393.750 368.750 396.875 " stroke="none" fill="#33e67c" fill-rule="evenodd"></path></g></svg>